<?xml version="1.0" standalone="no"?>
<!DOCTYPE svg PUBLIC "-//W3C//DTD SVG 20010904//EN"
 "http://www.w3.org/TR/2001/REC-SVG-20010904/DTD/svg10.dtd">
<svg version="1.0" xmlns="http://www.w3.org/2000/svg"
 width="607.000000pt" height="607.000000pt" viewBox="0 0 607.000000 607.000000"
 preserveAspectRatio="xMidYMid meet">
<metadata>
Created by potrace 1.14, written by Peter Selinger 2001-2017
</metadata>
<g transform="translate(0.000000,607.000000) scale(0.100000,-0.100000)"
fill="#000000" stroke="none">
<path d="M4865 5009 c47 -12 172 -48 200 -59 25 -10 59 -21 65 -22 3 0 14 -5
25 -11 11 -6 23 -12 28 -13 4 -1 9 -3 12 -4 3 -1 8 -3 13 -4 11 -3 86 -40 92
-46 3 -3 19 -12 35 -20 17 -8 32 -17 35 -20 3 -3 33 -25 68 -48 34 -23 74 -52
89 -65 57 -47 155 -151 180 -190 14 -23 31 -45 37 -49 6 -4 8 -8 3 -8 -4 0 4
-18 18 -40 14 -22 22 -40 19 -40 -3 0 1 -11 10 -25 9 -14 14 -25 11 -25 -2 0
0 -12 6 -27 6 -16 13 -44 16 -63 3 -19 8 -42 12 -50 15 -31 2 -241 -19 -320
-7 -25 -13 -52 -15 -60 -2 -8 -14 -41 -28 -72 -14 -31 -23 -59 -19 -62 3 -3 0
-6 -6 -6 -7 0 -12 -5 -12 -10 0 -22 -80 -170 -92 -170 -4 0 -8 -7 -8 -16 0 -9
-13 -33 -30 -54 -16 -21 -30 -42 -30 -48 0 -6 -3 -12 -7 -14 -5 -1 -42 -46
-85 -98 -109 -136 -249 -275 -423 -420 -49 -41 -96 -81 -103 -87 -18 -17 -17
-18 -81 21 -31 19 -108 61 -172 93 -121 62 -135 72 -172 112 -12 13 -28 29
-34 37 -7 7 -14 22 -16 33 -2 11 -6 23 -9 26 -10 10 2 107 17 136 17 32 68 73
105 84 40 13 152 7 198 -9 23 -8 81 -34 127 -58 54 -27 88 -39 94 -33 12 12
24 70 22 110 -3 76 -9 131 -15 145 -11 25 -67 57 -151 86 -71 24 -95 28 -205
28 -101 -1 -137 -5 -188 -22 -120 -41 -208 -116 -263 -223 -37 -74 -50 -134
-51 -234 -2 -100 15 -172 59 -257 32 -62 119 -158 142 -158 6 0 11 -3 11 -7 0
-9 35 -30 152 -89 52 -27 85 -50 82 -57 -4 -11 -110 -81 -184 -121 -19 -10
-37 -21 -40 -25 -18 -22 -482 -253 -491 -244 -5 5 -9 303 -9 662 -1 629 -1
654 -20 691 -26 51 -52 57 -225 55 -146 -2 -182 -11 -215 -51 -23 -29 -40 -62
-40 -79 0 -8 -4 -15 -9 -15 -8 0 -26 -66 -23 -82 1 -5 -2 -8 -8 -8 -5 0 -10
-6 -10 -14 0 -8 -5 -27 -12 -43 -6 -15 -12 -32 -14 -38 -1 -5 -18 -57 -38
-114 -19 -58 -33 -108 -30 -112 2 -4 1 -9 -4 -11 -6 -2 -112 -300 -126 -353
-1 -5 -17 -57 -36 -115 -18 -58 -34 -107 -35 -110 -1 -3 -5 -13 -8 -22 -4 -10
-9 -25 -12 -34 -10 -30 -29 -7 -51 60 -12 37 -22 69 -22 72 -2 11 -34 117 -43
142 -6 15 -11 29 -11 32 -1 3 -14 42 -29 88 -15 45 -25 82 -22 82 3 0 1 6 -4
13 -9 10 -51 131 -57 162 -4 17 -17 59 -25 80 -5 11 -18 54 -30 95 -12 41 -25
82 -28 90 -3 8 -7 20 -8 25 -2 6 -13 42 -26 80 -51 159 -86 179 -315 180 -139
0 -155 -2 -181 -21 -15 -11 -33 -35 -39 -53 -7 -21 -10 -292 -9 -818 l0 -788
25 -12 c16 -8 61 -12 123 -10 87 2 101 5 116 23 15 19 17 71 14 660 -1 351 -2
654 -2 673 0 19 5 43 11 54 9 17 12 18 19 5 5 -9 10 -24 12 -34 4 -21 22 -86
42 -149 66 -210 87 -278 91 -298 1 -10 23 -82 48 -160 54 -173 60 -192 57
-192 -2 0 7 -24 18 -52 11 -29 18 -53 16 -53 -3 0 -1 -9 5 -21 7 -11 13 -31
16 -43 2 -12 24 -85 49 -162 25 -76 45 -144 45 -150 0 -22 31 -72 53 -87 23
-15 206 -18 238 -3 13 6 106 252 113 301 1 5 4 15 8 20 3 6 9 26 13 45 4 19
10 40 14 45 3 6 6 13 7 18 1 4 3 9 4 12 1 3 3 8 4 13 3 11 11 37 98 307 44
137 81 254 83 260 1 5 5 17 8 25 6 14 37 121 43 145 7 29 56 184 65 208 6 15
15 27 20 27 6 0 8 -265 7 -637 l-3 -637 -35 -17 c-19 -10 -75 -33 -125 -52
-49 -19 -99 -38 -110 -42 -11 -5 -22 -9 -25 -10 -3 -1 -13 -5 -22 -8 -31 -12
-53 -20 -63 -23 -5 -2 -48 -17 -95 -33 -81 -28 -374 -115 -422 -125 -13 -3
-48 -12 -78 -21 -62 -17 -214 -54 -245 -59 -11 -1 -29 -6 -40 -9 -11 -3 -32
-8 -47 -11 -15 -3 -65 -12 -110 -22 -46 -9 -92 -18 -103 -19 -11 -1 -20 -4
-20 -5 0 -1 -16 -3 -35 -5 -19 -1 -48 -5 -65 -8 -50 -10 -140 -21 -244 -32
-34 -4 -72 -9 -84 -11 -12 -3 -56 -7 -97 -9 -41 -2 -95 -7 -120 -11 -25 -3
-70 -7 -100 -8 -50 -1 -62 -7 -46 -23 3 -4 6 -2 6 3 0 5 21 8 48 6 26 -1 52
-3 57 -3 6 0 33 2 60 5 28 3 100 7 160 11 61 3 121 7 135 9 14 3 59 7 100 11
103 8 151 14 180 21 14 4 39 7 55 9 17 1 50 6 75 10 25 4 56 9 70 11 71 9 210
33 280 48 123 27 149 33 153 35 1 2 11 4 23 6 19 4 337 86 409 105 84 23 112
32 130 40 32 14 362 120 374 120 5 0 21 -10 33 -23 21 -21 33 -24 124 -25 90
-1 104 1 123 20 20 18 22 28 19 86 l-4 65 44 20 c25 10 50 20 56 22 6 1 31 11
56 23 25 11 57 24 73 27 26 7 27 6 28 -34 1 -23 3 -45 4 -51 1 -5 3 -19 4 -29
3 -54 115 -127 242 -158 88 -21 246 -24 328 -5 265 60 413 259 406 545 -2 92
-25 181 -55 220 -11 14 -20 32 -20 41 0 8 36 42 79 75 44 34 101 79 128 102
26 22 71 59 98 82 69 57 283 271 332 332 71 88 113 145 113 154 0 5 6 11 13
14 6 3 21 22 32 43 11 22 23 41 26 44 9 7 104 200 113 230 5 14 9 30 11 35 2
6 11 30 20 55 9 25 18 60 21 78 2 18 11 51 19 75 32 92 3 287 -62 410 -8 15
-11 27 -8 27 4 0 -2 12 -12 28 -10 15 -25 39 -33 55 -7 15 -17 27 -22 27 -4 0
-8 6 -8 14 0 19 -151 170 -203 203 -23 14 -44 29 -47 32 -12 16 -218 128 -250
136 -5 2 -37 14 -95 38 -16 6 -32 12 -35 13 -3 0 -18 6 -34 13 -16 6 -36 13
-45 14 -9 1 -20 5 -26 8 -13 8 -79 26 -120 33 -11 2 -27 6 -35 9 -26 10 -132
27 -164 26 -29 -1 -28 -2 9 -10z m-76 -2630 c17 -29 23 -56 22 -96 -1 -96 -49
-166 -141 -203 -50 -20 -182 -18 -250 5 -65 21 -145 63 -145 74 0 5 59 38 130
75 72 37 137 73 145 80 8 6 35 22 60 36 25 13 54 28 65 34 11 6 22 14 25 17
11 13 45 27 55 22 7 -2 22 -22 34 -44z"/>
<path d="M4638 4675 c-2 -3 -42 -7 -89 -10 -124 -7 -229 -15 -269 -20 -36 -4
-84 -9 -200 -20 -36 -4 -77 -8 -91 -11 -14 -2 -41 -6 -60 -8 -63 -9 -114 -17
-164 -26 -27 -5 -63 -12 -80 -15 -16 -3 -41 -7 -55 -10 -14 -3 -61 -12 -105
-21 -44 -8 -115 -24 -159 -35 -43 -11 -97 -24 -120 -29 -64 -13 -325 -87 -407
-115 -41 -14 -82 -28 -92 -30 -50 -11 -454 -159 -532 -195 -11 -5 -54 -23 -95
-40 -272 -115 -592 -283 -878 -462 -78 -49 -157 -94 -175 -100 -77 -25 -202
-86 -244 -120 -40 -32 -153 -149 -153 -159 0 -7 -62 -106 -78 -124 -5 -5 -24
-24 -43 -41 -40 -36 -119 -122 -169 -183 -19 -23 -45 -55 -58 -69 -37 -44
-147 -212 -180 -277 -91 -177 -141 -359 -140 -507 2 -120 56 -303 118 -394 16
-25 30 -47 30 -50 0 -7 75 -87 123 -133 200 -188 570 -340 962 -397 22 -3 55
-9 73 -14 19 -5 32 -5 32 1 0 5 -6 9 -12 10 -13 1 -44 7 -63 13 -26 8 -62 16
-85 19 -14 2 -32 7 -40 10 -8 3 -35 12 -60 18 -55 15 -51 14 -75 24 -11 4 -49
19 -85 33 -102 39 -262 123 -290 152 -3 3 -23 17 -45 32 -108 75 -225 211
-282 329 -134 278 -94 589 121 937 85 137 86 137 87 -9 0 -68 2 -133 5 -144 2
-11 7 -38 10 -60 3 -22 10 -55 16 -73 5 -18 11 -39 13 -45 8 -40 63 -149 109
-217 28 -42 94 -112 144 -152 51 -42 183 -102 247 -114 11 -2 40 -8 65 -13 56
-12 250 -12 310 -1 25 4 59 11 75 14 163 29 269 76 282 126 4 14 7 192 6 396
-1 410 -3 428 -60 436 -46 6 -541 3 -548 -3 -21 -22 -23 -205 -1 -227 11 -11
45 -14 165 -13 l151 1 -3 -206 c-2 -222 1 -208 -57 -232 -59 -24 -91 -29 -169
-27 -45 2 -97 8 -114 15 -136 51 -217 121 -272 234 -35 73 -38 83 -60 201 -18
96 -12 274 12 365 10 37 10 40 13 45 1 3 4 10 5 15 1 6 4 12 5 15 1 3 3 8 4
13 3 19 60 122 68 122 4 0 8 4 8 10 0 23 131 129 152 122 5 -1 8 2 8 7 0 8 11
12 63 26 4 2 8 3 10 5 17 14 233 15 270 1 15 -6 27 -9 27 -6 0 14 244 -94 260
-115 3 -4 15 -9 27 -12 18 -5 23 0 30 31 5 20 9 75 8 123 -1 104 -11 122 -95
174 -37 23 -90 42 -165 60 -142 34 -137 32 -130 44 8 14 189 121 400 238 121
67 445 225 463 225 6 0 12 4 12 9 0 4 8 8 18 8 10 0 22 4 28 9 8 8 194 89 219
95 6 2 17 6 25 9 40 16 130 48 135 47 3 0 18 6 33 13 29 15 169 64 267 92 33
10 66 23 73 28 6 5 12 7 12 4 0 -3 32 5 72 19 67 23 268 79 313 87 11 2 27 6
35 9 31 11 326 77 375 84 11 2 31 5 45 9 14 3 39 7 55 10 17 3 41 7 55 10 45
8 104 17 131 20 42 4 142 16 169 20 43 6 143 17 195 20 28 2 84 7 125 11 41 4
137 7 212 8 76 0 138 4 138 9 0 8 -16 9 -198 9 -67 1 -125 -2 -129 -5 -3 -4
-13 -2 -23 3 -10 5 -19 7 -22 5z"/>
<path d="M5058 4663 c7 -3 16 -2 19 1 4 3 -2 6 -13 5 -11 0 -14 -3 -6 -6z"/>
<path d="M1066 1439 c2 -4 13 -7 24 -6 23 2 17 10 -10 12 -10 1 -17 -2 -14 -6z"/>
<path d="M1230 1440 c0 -5 5 -10 10 -10 6 0 10 5 10 10 0 6 -4 10 -10 10 -5 0
-10 -4 -10 -10z"/>
<path d="M1138 1433 c12 -2 32 -2 45 0 12 2 2 4 -23 4 -25 0 -35 -2 -22 -4z"/>
<path d="M1350 1066 c0 -2 7 -7 16 -10 8 -3 12 -2 9 4 -6 10 -25 14 -25 6z"/>
<path d="M1390 1060 c0 -5 5 -10 11 -10 5 0 7 5 4 10 -3 6 -8 10 -11 10 -2 0
-4 -4 -4 -10z"/>
</g>
</svg>
